<svg preserveAspectRatio="none" overflow="visible" style="display: block;" width="22.9229" height="22.9229" viewBox="0 0 22.9229 22.9229" fill="none" xmlns="http://www.w3.org/2000/svg">
<path id="Star 1" d="M10.486 0.779665C10.7208 -0.25989 12.202 -0.259888 12.4369 0.779668L13.342 4.78678C13.4942 5.46052 14.2673 5.78077 14.8513 5.41197L18.3248 3.21855C19.226 2.64952 20.2733 3.69689 19.7043 4.59801L17.5109 8.0715C17.1421 8.65552 17.4623 9.42867 18.1361 9.58086L22.1432 10.486C23.1827 10.7208 23.1827 12.202 22.1432 12.4369L18.1361 13.342C17.4623 13.4942 17.1421 14.2673 17.5109 14.8513L19.7043 18.3248C20.2733 19.226 19.226 20.2733 18.3248 19.7043L14.8513 17.5109C14.2673 17.1421 13.4942 17.4623 13.342 18.1361L12.4368 22.1432C12.202 23.1827 10.7208 23.1827 10.486 22.1432L9.58086 18.1361C9.42867 17.4623 8.65552 17.1421 8.0715 17.5109L4.59801 19.7043C3.69689 20.2733 2.64952 19.226 3.21855 18.3248L5.41198 14.8513C5.78077 14.2673 5.46052 13.4942 4.78678 13.342L0.779665 12.4368C-0.25989 12.202 -0.259888 10.7208 0.779668 10.486L4.78678 9.58086C5.46052 9.42867 5.78077 8.65552 5.41197 8.0715L3.21855 4.59801C2.64952 3.69689 3.69689 2.64952 4.59801 3.21855L8.0715 5.41198C8.65552 5.78077 9.42867 5.46052 9.58086 4.78678L10.486 0.779665Z" fill="#FF8D41"/>
</svg>
